<svg id="Mask" xmlns="http://www.w3.org/2000/svg" viewBox="0 0 2025.53 600">
    <defs>
        <style>
            .cls-1 {
            fill: none;
            }

            .picture {
                clip-path: url(#clip-path);
            }

            .background {
                fill: #7dd7ff;
                <!--background-size: 400% 400%;-->
                animation: dusk 59s ease infinite;

            }

            .sun {
                fill: #ffc580;
                animation: sunset 20s linear alternate forwards;
            }

            .right-skyline {
                fill: #686b64;
            }

            .palms {
                fill: #4c663c;
            }

            .left-skyline {
                fill: #666;
            }

            .mountain, .mountain {
                fill: #89633d;
            }

            .cls-8 {
                stroke: #fff;
                stroke-miterlimit: 10;
                stroke-width: 0.5px;
            }

            .clouds.speed1 {
                fill: #fff;
                animation: move-cloud-to-left 15s linear alternate forwards;
            }
            .clouds.speed2 {
                fill: #fff;
                animation: move-cloud-to-left 12s linear alternate forwards;
            }
            .clouds.speed3 {
                fill: #fff;
                animation: move-cloud-to-left 18s linear alternate forwards;
            }

            .castle {
                fill: #a0734a;
            }

            .front-skyline {
                fill: #535254;
            }

            @keyframes move-cloud {
                0% {
                transform: translateX(0px);
                }
                34% {
                transform: translateX(20px);
                }
                37% {
                transform: translateX(150px);
                }
                100% {
                transform: translateX(900px);
                }
            }

            @keyframes move-cloud-to-right {
                0% {
                    transform: translate(-500px, -120px)
                }
                100% {
                    transform: translate(100px, -150px)
                }
            }

            @keyframes move-cloud-to-left {
                0% {
                    transform: translate(-100px, -70px)
                }
                25% {
                    transform: translate(-220px, -50px)
                }
                50% {
                    transform: translate(-100px, -70px)
                }
                75% {
                    transform: translate(-220px, -20px)
                }
                100% {
                    transform: translate(-100px, 0px)
                }
            }

             @keyframes sunset {
                0% {
                    transform: translateY(0px);
                }
                100% {
                    transform: translateY(350px);
                }
            }
            @keyframes dusk {
                0%{background-position:50% 0%}
                50%{background-position:51% 100%}
                100%{background-position:50% 0%}
            }


        </style>
        <clipPath id="clip-path">
            <rect class="cls-1" y="-20.13" width="2040.08" height="620.13"/>
        </clipPath>
        <linearGradient x1="35%" y1="1%" x2="35%" y2="97%" id="linearGradient-1">
            <animate attributeName="x2" values="-70%;30%;50%;" dur="5s" repeatCount="freeze"/>
            <animate attributeName="x1" values="20%;50%" dur="5s" repeatCount="freeze"/>
            <stop stop-color="#2F4147" offset=".6">
                <animate attributeName="stop-color" values="#9AE3F9;#2F4147;" dur="15s"
                         repeatCount="freeze"/>
                <animate attributeName="offset" values="0;.6" dur="20s" repeatCount="freeze"/>
            </stop>
            <!--<stop stop-color="#8C795C" offset=".72">-->
                <!--<animate attributeName="stop-color" values="#9AE3F9;#8C795C;" dur="15s"-->
                         <!--repeatCount="freeze"/>-->
                <!--<animate attributeName="offset" values="0;.72" dur="10s" repeatCount="freeze"/>-->
            <!--</stop>-->
            <stop stop-color="#6E5D43" offset=".85">
                <animate attributeName="stop-color" values="#ffffff;#6E5D43;" dur="15s"
                         repeatCount="freeze"/>
                <animate attributeName="offset" values=".3;.85" dur="20s" repeatCount="freeze"/>
            </stop>
            <stop stop-color="#FFC580" offset="1">
                <animate attributeName="stop-color" values="#ffffff;#9AE3F9;#FFC580;" dur="5s"
                         repeatCount="freeze"/>
            </stop>
            <stop stop-color="#FFC580" offset=".9">
                <animate attributeName="stop-color" values="6E5D43#FFC580;" dur="10s"
                         repeatCount="freeze"/>
            </stop>


            <!--<stop stop-color="#00000ff;" offset=".10">-->

                <!--<animate attributeName="offset" values="0;.3;.3;.6;1" dur="5s" repeatCount="freeze"/>-->
            <!--</stop>-->
            <!--<stop stop-color="#ff0000" offset=".95">-->
                <!--&lt;!&ndash;>&ndash;&gt;-->
                <!--&lt;!&ndash;<animate attributeName="offset" values="0;.35;.7;.95" dur="5s" repeatCount="freeze"/>&ndash;&gt;-->
            <!--</stop>-->




            <!--<stop stop-color="#6A6A6A;" offset="15%">-->
                <!--<animate attributeName="stop-color" values="#9AE3F9;#6A6A6A;" dur="5s" repeatCount="freeze"/>-->
                <!--<animate attributeName="offset" values="0;.3" dur="5s" repeatCount="freeze"/>-->
            <!--</stop>-->
            <!--<stop stop-color="#ffc580" offset="97%">-->
                <!--<animate attributeName="stop-color" values="#9AE3F9;#ffc580;#6A6A6A;#ffc580" dur="5s" repeatCount="freeze"/>-->
                <!--<animate attributeName="offset" values="0;.35;.7;.95" dur="5s" repeatCount="freeze"/>-->
            <!--</stop>-->
        </linearGradient>
        <filter x="-50%" y="-50%" width="200%" height="200%" filterUnits="objectBoundingBox" id="filter-2">
            <feGaussianBlur stdDeviation="1.38671875" in="SourceGraphic"></feGaussianBlur>
        </filter>
        <filter x="-50%" y="-50%" width="200%" height="200%" filterUnits="objectBoundingBox" id="filter-3">
            <feGaussianBlur stdDeviation="1.38671875" in="SourceGraphic"></feGaussianBlur>
        </filter>
        <filter x="-50%" y="-50%" width="200%" height="200%" filterUnits="objectBoundingBox" id="filter-4">
            <feGaussianBlur stdDeviation="1.38671875" in="SourceGraphic"></feGaussianBlur>
        </filter>
        <filter x="-50%" y="-50%" width="200%" height="200%" filterUnits="objectBoundingBox" id="filter-5">
            <feGaussianBlur stdDeviation="2.96875" in="SourceGraphic"></feGaussianBlur>
        </filter>
    </defs>
    <title>AlicanteSkyline2</title>
    <g class="picture">
        <g id="AlicanteSkyline2-01" fill="url(#linearGradient-1)">
            <g id="Mask">
                <g id="Group">
                    <rect id="Rectangle-path" x="0.83" y="0.87" width="2821.7" height="620.13"></rect>
                </g>
            </g>
        </g>

        <circle class="sun" cx="483.82" cy="440" r="222.25"/>
        <polygon class="right-skyline"
                 points="1500.86 478.33 1536.73 478.33 1536.73 512.75 1542.06 512.75 1542.06 504.51 1579.87 504.02 1579.87 464.76 1608.46 464.76 1609.78 465.92 1613.98 465.92 1613.98 489.74 1620.57 489.74 1620.89 475.93 1637.88 475.85 1637.88 441.47 1642.4 441.47 1642.4 440.6 1662.33 440.6 1662.33 441.24 1666.14 441.24 1666.14 494.74 1672.09 494.82 1672.09 489.66 1686.78 473.15 1709.56 473.31 1709.56 477.51 1719.79 487.15 1721.86 536.25 1759.25 536.25 1758.79 529.82 1780.36 529.6 1780.59 537.62 1797.79 538.08 1798.02 501.38 1799.4 501.38 1799.4 496.29 1802.38 496.29 1802.38 492 1819.46 492.12 1819.46 496.41 1822.38 496.41 1822.38 501.41 1825.12 501.41 1825.12 549.27 1836.43 549.27 1836.43 510.52 1860.84 510.67 1860.84 513.52 1863.76 513.58 1863.76 553.59 1866.18 553.59 1866.18 565.71 1870.94 565.71 1870.94 548.88 1873.33 546.81 1873.33 531.73 1877.61 531.73 1877.61 525.22 1894.76 525.22 1894.76 532.21 1935.4 511.25 1935.4 533.48 1937.78 533.32 1937.78 548.72 1951.44 548.88 1951.44 533.79 1958.9 533.95 1958.9 509.5 1972.24 509.66 1972.24 533.79 1982.24 533.95 1982.24 548.4 1996.53 548.4 1996.53 584.44 2004.31 584.44 2004.31 579.52 2007.64 579.52 2007.64 584.44 2012.88 584.44 2012.88 579.68 2016.06 579.68 2016.06 584.44 2019.87 584.44 2019.87 579.68 2024.31 579.68 2024.31 584.44 2029.55 584.44 2029.55 593.17 1500.86 593.17 1500.86 478.33"/>
        <path class="palms"
              d="M1714.88,593.17V527s-4,.79-4-5.4c.16-.48-.64-3.81,2-4.13,0,0-1.67-3.65-13.26-3-.16.16-3.81-1.75-12.86,7.46-.16,0-1-7.46,9.37-10.64,0,0-.79-5.08-11.75,3.33-.16-.16,3.18-13,17.94-7-.32-.32,1.43-6.67-14.45-7.14,0,0,10.16-6.35,22.7,8.1l3.18.48s.47-7-14.13-16.67c0,0,4.61-3.49,12.07,6.67-.16.16,3.33,1.91,3.18.79s-2.85-7,0-5.56c0,0,1.42-6.83,5.71-6.51-.77.18-2.7,4.29-2.7,7.3-.16,0,4.6-6.19,11.59-6-.16,0-6.92,4.91-7.94,10.32.16-.16,13.65-10,17.46-5.87-.16-.48-8.26,2.22-8.26,5.4-.16-.16,14.77-3.65,16,1.11-.16,0-13-.32-13.65,2.22,0-.48-1.27,1.43.48,2.06s7.3-2.22,15.08,8.57c-.16,0-5.08-3.33-7.78-1.91,0-.16,8.41,2.54,7.78,6.51,0,.32-11.91-7.78-22.23-4.13a4.16,4.16,0,0,0,1.91,2.86c1.43.79-.48,1.59-.48,1.59s-5.25-4.11-6-2.06,0,2.06.44,4.05c1.21,3.41-2.38,6.88-2.38,6.88l0,66.54Z"/>
        <path class="palms"
              d="M1746,593.17v-44s2.5.53,2.5-3.59c-.1-.32.4-2.53-1.25-2.74,0,0,1-2.43,8.34-2,.1.11,2.4-1.16,8.09,5,.1,0,.6-5-5.89-7.07,0,0,.5-3.38,7.39,2.22.1-.11-2-8.65-11.29-4.64.2-.21-.9-4.43,9.09-4.75,0,0-6.39-4.22-14.29,5.38l-2,.32s-.3-4.64,8.89-11.08c0,0-2.9-2.32-7.59,4.43.1.11-2.1,1.27-2,.53s1.79-4.64,0-3.69c0,0-.9-4.54-3.59-4.33.48.12,1.7,2.85,1.7,4.85.1,0-2.9-4.12-7.29-4,.1,0,4.36,3.26,5,6.86-.1-.11-8.59-6.65-11-3.9.1-.32,5.2,1.48,5.2,3.59.1-.11-9.29-2.43-10.09.74.1,0,8.19-.21,8.59,1.48,0-.32.8.95-.3,1.37s-4.6-1.48-9.49,5.7c.1,0,3.2-2.22,4.9-1.27,0-.11-5.3,1.69-4.9,4.33,0,.21,7.49-5.17,14-2.74a2.8,2.8,0,0,1-1.2,1.9c-.9.53.3,1.06.3,1.06s3.3-2.73,3.8-1.37,0,1.37-.28,2.69c-.76,2.26,1.5,4.57,1.5,4.57v44.23Z"/>
        <path class="left-skyline"
              d="M-781.08,520.94h9v46.68h19.35V533.46h38.62V489.9l3.57-2.06h18.18v83.35H-666V535l10.6.06v-4.17l5.75-.12V522.1l4.35-.09v-5.63l7.08,0,.18,5.72,4.11.06v8.45l3.78-.18v4.64l11.55.12v31.2l21.91-.24V513.31l3.33.12v-3.1h2.14v-2.86l20.48.24v2.74h1.79v3.1h3.57V572h6.19v-69.9h35.25v2.74l8.1.12v67.63h5.12V545.94s3.33-9.53,11.91-8.81,23.58,18.58,23.58,18.58v-31.2l11.67.24v-5.24l35,.24v5l10.24.24v31h5.48V515.46h5v-3.1h20.72v4l11.67-.24v-20h8.57v-5l31-.24v6.19h3.81v63.35l11.91.24V508.55h5.72v-5.24H-309v-2.62l14.29-.24v3.1h7.14v6l14.29.24v51.68h42.15v-61.2h35.25v2.62h7.62v49.3h23.1V475h32.39v2.62h6.67v92.64h34.29V484.5l26.67-.24v4.52l12.15-.24v74.3H101.59V522.6l27.39-.24V535.7h5.24V560h7.14V537.84L154.7,515.7v-8.81h5.72v8.81l10.24,20.48h40.48s.48-5.48,8.57-5.24c.24,0,9.53.48,16,4.76v15.72l45,.24v-20h3.1v-9h1v8.93l2.86.06v20.06l42.23-.24V518.08h14.61V561.9h19.37V479l47.31,1v81.29h51.12V491.72H564.47l2.86,102.56H-781.08Z"/>


        <!--<svg width="481px" height="85px" viewBox="1871 369 481 85" version="1.1" xmlns="http://www.w3.org/2000/svg"-->
             <!--xmlns:xlink="http://www.w3.org/1999/xlink" class="clouds">-->
            <!--<defs>-->
                <!--<filter x="-50%" y="-50%" width="200%" height="200%" filterUnits="objectBoundingBox" id="filter-1">-->
                    <!--<feGaussianBlur stdDeviation="1.38671875" in="SourceGraphic"></feGaussianBlur>-->
                <!--</filter>-->
            <!--</defs>-->
            <!--<path d="M2049.02949,437.583834 C2054.29293,441.684277 2060.73845,444.097067 2067.7009,444.097067 C2072.67911,444.097067 2077.39304,442.863559 2081.59957,440.661609 C2089.16597,445.847663 2099.22956,449.01 2110.27567,449.01 C2123.13758,449.01 2134.66739,444.722545 2142.47397,437.945124 C2145.72933,438.635475 2149.2196,439.01 2152.85045,439.01 C2153.3561,439.01 2153.85902,439.002736 2154.35896,438.988367 C2169.76975,445.05166 2196.10333,449.047067 2226,449.047067 C2264.47617,449.047067 2297.05082,442.429487 2308.03593,433.303046 C2333.1332,431.63761 2347.77,429.634747 2347.77,427.48 C2347.77,425.385102 2333.93499,423.433767 2310.10289,421.796508 C2306.4882,417.363763 2297.89381,413.414185 2285.92702,410.368726 C2284.41911,398.465972 2259.73256,389 2229.5,389 C2204.14258,389 2182.68674,395.659255 2175.53666,404.830173 C2169.72248,401.227117 2161.70444,399 2152.85045,399 C2152.13191,399 2151.41888,399.014668 2150.71209,399.043548 C2148.73878,398.699768 2146.69699,398.370776 2144.59124,398.057459 C2136.84092,390.138665 2124.35658,385 2110.27567,385 C2104.19815,385 2098.41805,385.957288 2093.18764,387.682224 C2087.30952,379.361375 2078.07953,374 2067.7009,374 C2054.15329,374 2042.56285,383.135269 2037.82994,396.063574 C2004.15588,399.330926 1981,406.137601 1981,414.005 C1981,415.614164 1981.96872,417.178953 1983.79803,418.678158 C1918.92387,420.545476 1876,423.790031 1876,427.48 C1876,432.300904 1949.26736,436.361527 2049.02949,437.583834 Z"-->
                  <!--id="Combined-Shape" stroke="none" fill="#FFFFFF" fill-rule="evenodd" opacity="0.947237319"-->
                  <!--filter="url(#filter-1)"></path>-->
        <!--</svg>-->

        <path d="M2049.02949,437.583834 C2054.29293,441.684277 2060.73845,444.097067 2067.7009,444.097067 C2072.67911,444.097067 2077.39304,442.863559 2081.59957,440.661609 C2089.16597,445.847663 2099.22956,449.01 2110.27567,449.01 C2123.13758,449.01 2134.66739,444.722545 2142.47397,437.945124 C2145.72933,438.635475 2149.2196,439.01 2152.85045,439.01 C2153.3561,439.01 2153.85902,439.002736 2154.35896,438.988367 C2169.76975,445.05166 2196.10333,449.047067 2226,449.047067 C2264.47617,449.047067 2297.05082,442.429487 2308.03593,433.303046 C2333.1332,431.63761 2347.77,429.634747 2347.77,427.48 C2347.77,425.385102 2333.93499,423.433767 2310.10289,421.796508 C2306.4882,417.363763 2297.89381,413.414185 2285.92702,410.368726 C2284.41911,398.465972 2259.73256,389 2229.5,389 C2204.14258,389 2182.68674,395.659255 2175.53666,404.830173 C2169.72248,401.227117 2161.70444,399 2152.85045,399 C2152.13191,399 2151.41888,399.014668 2150.71209,399.043548 C2148.73878,398.699768 2146.69699,398.370776 2144.59124,398.057459 C2136.84092,390.138665 2124.35658,385 2110.27567,385 C2104.19815,385 2098.41805,385.957288 2093.18764,387.682224 C2087.30952,379.361375 2078.07953,374 2067.7009,374 C2054.15329,374 2042.56285,383.135269 2037.82994,396.063574 C2004.15588,399.330926 1981,406.137601 1981,414.005 C1981,415.614164 1981.96872,417.178953 1983.79803,418.678158 C1918.92387,420.545476 1876,423.790031 1876,427.48 C1876,432.300904 1949.26736,436.361527 2049.02949,437.583834 Z"
              id="Combined-Shape" stroke="none" fill="#FFFFFF" fill-rule="evenodd" opacity="0.947237319"
              filter="url(#filter-1)" class="clouds"></path>

        <path class="mountain"
              d="M1288.28,371.62c0,.48,21.67,9.53,26.2,9.53h3.1v12.62s17.15.24,17.38,1.43,0,7.62,0,7.62l23.81,18.1,18.81-.24V435.2l64.78,55.73L1566,598.33H483.82S528.83,487.12,635,484c-.48.48.48-14.29.48-14.29h18.34V459.26l71.44-27.86V420l106.93-7.62v-9.29l39.53-7.62v-7.62l24.53-8.34h20.24V356.14s5.48-41.68,26.2-42.63h35.48"/>
        <polyline class="mountain"
                  points="978.43 313.61 1075.85 313.61 1105.38 333.27 1233.98 337.56 1268.27 369.95 1317.57 381.14"/>

        <path class="castle"
              d="M1288.5,371.71c-12.15-4-45.49-31.2-45.49-31.2v-9.76c-4-4.76-13.34-2.14-13.57-2.38-32.63,7.38-54.77-1.67-54.77-1.67l-63.35-.24c-.71-6.43-6-6.91-6-6.91h-12.15c-7.14,0-7.62-5.72-7.62-5.72v-7.38l1.67-2.86V296H1083v4.52h-33.34V295l-9-.24v-25h-1.19v11.67H1038V295h-7.38v11h-17.86l-34.29,7.62v11.93l34.29-7.34,57.47,1.27s-3.49,7.62,9.21,7.94,17.15,13.49,25.4,12.62,71.44,0,71.44,0,32.07,7.07,53.66,1.67c0,.32.32,7,.32,7s37.47,31.12,50.8,31.12l29.21,8.73v12.21l18.75,1v6.07l25.24,19.83h15.84v14.88l80.14,68v-12.7l-72.63-62.56V420.68l-18.81.24L1335,402.81v-7.62l-17.38-1.43V381.14Z"/>

        <path class="front-skyline"
              d="M-781.08,528.15h10.22v10.47h10.47v31.86h4.68v10h9.36v-10l10.92-.22v-36.8h14A25.29,25.29,0,0,1-702,524.59c12.7,0,18,8.47,18,8.47l14-.22V558l31.19.22v22.28H-575V560.91l15.87.45V550.66h7.53v-5.57l46.12.45v5.35l6.68.22v11.14l7.35-.22,4-9.47h22.28l6.68,8.8,22.06.22V579.4l16.71-.22v10.25H-389V561.8h47.24V536.4l37.43.45v39.88h7.35v-2.9h5.79v-4l3.12-2.67v-4.9l2.67-3.12,1.11,1.78v5.57h2.67v2.9l3.12.22v3.34h4.68v2.9l11.14-.22V546.2l10.69-.22V544.2l2.67-3.79,3.12.22V526.37h7.58v-4h22.5v3.79l7.58.22v13.81h2.67l2.23,2.45V546l12.25.22v14h41.67V527.71l46.57.22v15.6l31.42.22V568l22.28.22V520.58h14.48V497.4h7.8v-3.12H5.19l3.34,4.46h7.13v21.39l38.55.22V498.3h8v-4H93.87l3.56,3.79h6.68v22.5l11.81.22v34.09l28.3.22s7.13-16.71,33.42-17.82c0,0,15.82-2,35,17.16v6.24l16.93.45V509.21h35.2v31.19h31V492.5H340.3v58.38l11.36-.22V510.55l14.71-.22V505.2l47.46-.45v29L429,533.5v-7.58l1.78.22V514.78l8.69.45V505l9.36.22V499l68.4.45v5.35h11.14v12.7l7.13.22v10.25h7.58V492.5h6.46V482h6.24v-8.47H599.2v9.14h5.57v10.69h5.35v10.92h6.46v68.4h12.64V548l21.22.45V513l9.14-15.15,102,.22,8.91,15.82v8.47l-2,1.78.45,10.49H798.4V508.32h22.5s5.57-10,25-10.25c13.15.45,22.5,9.58,22.5,9.58l18.94.22V544l56.59.45V485.15h6.24v-6.46l33.87.22v6.68l8.69-.22v87.56l9.36.22V549.1h13.15V542s1.78-10.69,12.7-10.47,11.59,10,11.59,10v7.58h10.69v23.4h30.3V552.44l34.54.67V538.63l41-.22v16.93h27.63v-43l16.71.22,4.9-10.69H1277l5.35,10.25,17.6.22v45l69.74.45V521.47l37.43.67v24.73l24.73.67v31.64l11.81-.22V324.5h75.76v6.68h5.35v5.12l-6,.22.22,21.84h5.79v6.68h-6v4.46l6-.22v6.46h-6v3.56h6v6.46H1519l.22,4.46,5.57.22v6.91l-5.57-.22v4l5.57.22v5.79h-5.35v4.9l5.35.22v5.79h-5.35l.22,5.12,5.12.22V429h-5.35l.22,5h5.12v5.46h-5.57l.22,4.23h5.35v6.46H1519l.22,4.46,5.57.22v7.35l-6-.22v3.12h6v6.24l-5.79.22.22,4.23h5.57v6.91h-6.46l.22,4,6.24.22v6.24h-6.46l.22,5.35,6.24-.22v5.35l-5.79.22v4.68h5.79v6.24H1519v3.56l5.79-.22v6.24H1519v4.46h5.79v6.46h-6.46v4h6.46v7.13l-6.46-.22v4h6.46v6l-6.29-.12.09,6.11h7.07v4.92l20.24.08-.79-72.4,9.29.08v-7.62l37.07.24v7.86l4.52-.08V555.7h10.72v-10l17.62-.24v10.48H1641v26.67l49.77-.24v8.1h43.1v2.7h305.68V600H-781.08Z"/>

        <!--<path d="M803.940609,451.574634 C781.011612,453.717479 764,461.603947 764,471.005 C764,482.053456-->
        <!--787.496096,491.01 816.48,491.01 C819.128236,491.01 821.730658,490.935228 824.27353,490.79092-->
        <!--C833.603294,496.335745 849.916012,500.01 868.48,500.01 C876.687126,500.01 884.454237,499.29186-->
        <!--891.372473,498.011436 C907.125716,499.29186 924.811888,500.01 943.5,500.01 C1009.49803,500.01 1063,491.053456-->
        <!--1063,480.005 C1063,474.290735 1048.68843,469.136049 1025.73842,465.490657 C1034.8363,462.667889 1040,459.437394-->
        <!--1040,456.005 C1040,444.956544 986.498028,436 920.5,436 C863.596641,436 815.982663,442.658162-->
        <!--803.940611,451.574634 Z" id="Combined-Shape" fill="#FFFFFF" opacity="0.947237319" filter="url(#filter-2)"-->
              <!--class="clouds speed1" x="10" y="10">-->
        <!--</path>-->
        <!--<path-->
              <!--d="M1512.59124,338.057459 C1504.84092,330.138665 1492.35658,325 1478.27567,325 C1472.19815,325 1466.41805,325.957288 1461.18764,327.682224 C1455.30952,319.361375 1446.07953,314 1435.7009,314 C1422.15329,314 1410.56285,323.135269 1405.82994,336.063574 C1372.15588,339.330926 1349,346.137601 1349,354.005 C1349,362.328532 1374.91875,369.464777 1411.79057,372.478551 C1417.67566,379.61154 1426.20778,384.097067 1435.7009,384.097067 C1440.67911,384.097067 1445.39304,382.863559 1449.59957,380.661609 C1457.16597,385.847663 1467.22956,389.01 1478.27567,389.01 C1491.13758,389.01 1502.66739,384.722545 1510.47397,377.945124 C1513.72933,378.635475 1517.2196,379.01 1520.85045,379.01 C1538.60616,379.01 1553,370.053456 1553,359.005 C1553,357.916688 1552.86034,356.848673 1552.59156,355.807517 C1552.86191,355.213765 1553,354.612545 1553,354.005 C1553,351.53956 1550.72601,349.178286 1546.56696,346.997457 C1540.70122,342.14104 1531.36533,339 1520.85045,339 C1520.13191,339 1519.41888,339.014668 1518.71209,339.043548 C1516.73878,338.699768 1514.69699,338.370776 1512.59124,338.057459 Z"-->
              <!--id="Combined-Shape" fill="#FFFFFF" opacity="0.947237319" filter="url(#filter-3)" class="clouds speed1"></path>-->
        <!--e-->
        <!--<path d="M2016.02949,437.583834 C2021.29293,441.684277 2027.73845,444.097067 2034.7009,444.097067 C2039.67911,444.097067 2044.39304,442.863559 2048.59957,440.661609 C2056.16597,445.847663 2066.22956,449.01 2077.27567,449.01 C2090.13758,449.01 2101.66739,444.722545 2109.47397,437.945124 C2112.72933,438.635475 2116.2196,439.01 2119.85045,439.01 C2120.3561,439.01 2120.85902,439.002736 2121.35896,438.988367 C2136.76975,445.05166 2163.10333,449.047067 2193,449.047067 C2231.47617,449.047067 2264.05082,442.429487 2275.03593,433.303046 C2300.1332,431.63761 2314.77,429.634747 2314.77,427.48 C2314.77,425.385102 2300.93499,423.433767 2277.10289,421.796508 C2273.4882,417.363763 2264.89381,413.414185 2252.92702,410.368726 C2251.41911,398.465972 2226.73256,389 2196.5,389 C2171.14258,389 2149.68674,395.659255 2142.53666,404.830173 C2136.72248,401.227117 2128.70444,399 2119.85045,399 C2119.13191,399 2118.41888,399.014668 2117.71209,399.043548 C2115.73878,398.699768 2113.69699,398.370776 2111.59124,398.057459 C2103.84092,390.138665 2091.35658,385 2077.27567,385 C2071.19815,385 2065.41805,385.957288 2060.18764,387.682224 C2054.30952,379.361375 2045.07953,374 2034.7009,374 C2021.15329,374 2009.56285,383.135269 2004.82994,396.063574 C1971.15588,399.330926 1948,406.137601 1948,414.005 C1948,415.614164 1948.96872,417.178953 1950.79803,418.678158 C1885.92387,420.545476 1843,423.790031 1843,427.48 C1843,432.300904 1916.26736,436.361527 2016.02949,437.583834 Z"-->
              <!--id="Combined-Shape" fill="#FFFFFF" opacity="0.947237319" filter="url(#filter-4)" class="clouds speed3"></path>-->
        <!--<path d="M2494.82409,297.496147 C2496.90869,298.138524 2498,298.801738 2498,299.48 C2498,305.267944 2418.53054,309.96 2320.5,309.96 C2222.46946,309.96 2143,305.267944 2143,299.48 C2143,295.720811 2176.52277,292.423903 2226.88099,290.574533 C2226.29854,290.214782 2226,289.849626 2226,289.48 C2226,283.692056 2299.20144,279 2389.5,279 C2479.79856,279 2553,283.692056 2553,289.48 C2553,292.696033 2530.39981,295.573722 2494.82409,297.496147 Z"-->
              <!--id="Combined-Shape" fill="#FFFFFF" opacity="0.947237319" filter="url(#filter-5)" class="clouds speed2"></path>-->

    </g>
</svg>